<svg width="120" height="120" viewBox="0 0 120 120" fill="none" xmlns="http://www.w3.org/2000/svg">
<path d="M58 28H42C38.6863 28 36 30.6863 36 34V62C36 65.3137 38.6863 68 42 68H58C61.3137 68 64 65.3137 64 62V34C64 30.6863 61.3137 28 58 28Z" fill="#505CF4"/>
<path d="M69 63C69 65.7614 71.2386 68 74 68C78 68 83 62 83 54.6667V41.3333C83 34 78 28 74 28C71.2386 28 69 30.2386 69 33V63Z" fill="#7A84FF"/>
<path d="M58 73H42C38.6863 73 36 75.6863 36 79V87C36 90.3137 38.6863 93 42 93H58C61.3137 93 64 90.3137 64 87V79C64 75.6863 61.3137 73 58 73Z" fill="#C7CBFF"/>
<path d="M74 73C71.2386 73 69 75.2386 69 78V87C69 90.3137 71.6863 93 75 93H77C80.3137 93 83 90.3137 83 87V86.3333C83 79 78 73 74 73Z" fill="#505CF4"/>
</svg>
